<?xml version="1.0" standalone="no"?>
<!DOCTYPE svg PUBLIC "-//W3C//DTD SVG 20010904//EN"
 "http://www.w3.org/TR/2001/REC-SVG-20010904/DTD/svg10.dtd">
<svg version="1.0" xmlns="http://www.w3.org/2000/svg"
 width="500.000000pt" height="500.000000pt" viewBox="0 0 500.000000 500.000000"
 preserveAspectRatio="xMidYMid meet">
<metadata>
Created by potrace 1.11, written by Peter Selinger 2001-2013
</metadata>
<g transform="translate(0.000000,500.000000) scale(0.100000,-0.100000)"
fill="#000000" stroke="none">
<path d="M2397 4974 c-1 -1 -40 -4 -87 -7 -839 -57 -1593 -553 -2002 -1317
-129 -239 -230 -556 -262 -820 -3 -19 -8 -62 -12 -95 -15 -129 -7 -414 17
-588 120 -870 733 -1637 1559 -1951 309 -118 583 -166 915 -161 110 2 216 6
235 9 19 3 58 8 85 11 28 4 94 15 148 26 919 184 1673 904 1901 1815 56 223
71 358 70 624 -1 353 -60 643 -196 960 -126 294 -290 534 -527 771 -282 281
-622 491 -981 604 -71 23 -256 70 -310 79 -95 16 -150 23 -245 32 -51 5 -304
12 -308 8z m323 -158 c30 -4 78 -9 105 -12 28 -3 57 -7 65 -9 8 -2 31 -7 50
-10 52 -9 185 -43 270 -70 244 -76 517 -222 734 -393 178 -139 409 -402 539
-612 171 -278 289 -632 327 -980 15 -136 4 -472 -19 -605 -70 -406 -248 -799
-494 -1092 -76 -91 -183 -205 -233 -248 -32 -27 -65 -57 -73 -65 -31 -29 -207
-157 -271 -197 -221 -137 -496 -245 -758 -298 -106 -21 -157 -29 -277 -41 -48
-4 -325 -4 -378 0 -47 5 -141 16 -173 22 -13 2 -36 6 -51 9 -274 47 -555 155
-818 314 -91 55 -277 203 -379 301 -405 390 -647 895 -702 1460 -19 192 -5
482 31 660 75 363 241 720 468 1003 123 152 320 342 447 430 277 191 496 294
773 366 131 34 270 58 382 67 44 4 81 7 83 9 5 4 298 -3 352 -9z"/>
<path d="M2671 3473 c-18 -9 -47 -35 -66 -57 -49 -61 -141 -231 -176 -326
-109 -296 -135 -394 -159 -590 -7 -65 -16 -100 -28 -112 -34 -32 -156 -108
-163 -101 -4 5 -21 55 -37 113 -25 91 -27 110 -17 140 14 44 9 67 -17 76 -50
15 -109 -60 -101 -130 2 -21 8 -47 13 -57 6 -10 10 -30 10 -46 0 -15 12 -55
25 -88 14 -33 25 -65 25 -71 0 -7 -21 -29 -47 -50 -107 -87 -158 -159 -149
-212 10 -67 65 -102 152 -98 83 4 148 54 174 132 12 36 9 162 -4 195 -5 12 12
29 64 67 38 29 73 53 76 54 3 2 7 -24 10 -57 4 -63 29 -100 59 -88 8 3 42 56
76 119 33 63 70 127 83 142 12 15 48 66 80 115 33 48 62 90 66 92 10 6 -19
-106 -30 -120 -16 -19 -50 -120 -61 -180 -22 -115 -8 -170 55 -213 78 -53 113
-25 215 173 l41 80 -7 -60 c-9 -73 -9 -178 -1 -223 24 -127 126 -173 212 -94
57 54 168 225 210 326 l16 40 38 -36 c50 -49 101 -59 132 -26 28 29 58 75 109
170 47 86 50 101 20 96 -15 -2 -32 -23 -56 -68 -33 -63 -114 -150 -140 -150
-33 0 -17 120 29 212 10 21 18 42 18 47 0 13 -74 35 -94 28 -23 -9 -44 -47
-50 -92 -12 -82 -20 -103 -77 -215 -76 -150 -149 -261 -183 -280 -26 -14 -29
-13 -47 9 -15 18 -19 41 -21 100 -1 42 -2 85 -3 96 0 11 2 36 6 55 4 19 10 53
13 75 12 81 19 101 64 175 41 68 67 116 179 330 41 81 93 238 93 285 0 75 -47
138 -102 138 -45 0 -76 -41 -158 -208 -68 -138 -99 -229 -139 -395 -68 -289
-60 -271 -179 -420 -64 -79 -93 -90 -86 -33 2 16 6 54 9 86 4 31 24 108 46
171 45 130 47 154 19 184 -27 29 -62 28 -99 -4 -34 -28 -199 -270 -220 -322
-21 -49 -29 -47 -19 6 4 26 11 58 13 72 23 120 34 146 95 219 33 40 60 75 60
79 0 4 20 31 44 61 73 89 167 297 195 431 21 101 15 206 -12 228 -22 19 -63
21 -96 5z m67 -105 c6 -69 -36 -201 -119 -374 -46 -96 -157 -280 -164 -272 -4
5 42 177 63 238 32 91 102 259 148 358 46 99 67 113 72 50z m-108 -75 c-5 -16
-37 -102 -73 -193 -56 -145 -92 -248 -126 -370 -10 -33 -10 -33 -4 10 9 71 55
211 125 385 35 88 67 168 71 178 10 28 16 19 7 -10z m597 -110 c-2 -32 -14
-85 -26 -118 -12 -33 -24 -71 -27 -83 -2 -13 -12 -34 -20 -47 -9 -13 -16 -28
-16 -32 -1 -17 -12 -39 -27 -51 -13 -11 -13 -12 -1 -7 10 4 9 2 -2 -8 -10 -8
-15 -16 -13 -19 3 -3 -13 -43 -36 -89 -40 -82 -43 -82 -25 6 22 103 82 319
108 385 24 61 63 120 80 120 7 0 9 -19 5 -57z m-171 -110 c-8 -15 -15 -25 -16
-21 0 12 23 58 27 54 3 -2 -2 -17 -11 -33z m-1058 -974 c3 -66 -29 -126 -79
-148 -70 -32 -98 -7 -64 58 13 26 122 131 136 131 3 0 6 -19 7 -41z m57 -159
c-3 -5 -16 -15 -28 -21 -21 -10 -21 -9 2 10 25 23 36 27 26 11z"/>
<path d="M4250 3313 c-27 -10 -51 -37 -71 -80 -10 -23 -19 -45 -19 -48 0 -4
-8 -19 -19 -33 -10 -15 -29 -58 -42 -97 -12 -38 -28 -75 -33 -81 -6 -6 -60
-19 -121 -28 -123 -19 -185 -35 -185 -48 0 -20 136 -11 269 18 21 4 23 2 17
-18 -3 -13 -22 -84 -41 -158 -31 -115 -41 -139 -68 -166 -46 -44 -162 -124
-180 -124 -10 0 -23 30 -42 103 -15 56 -28 107 -30 112 -1 6 2 18 7 29 18 34
16 66 -5 81 -18 12 -24 12 -49 -3 -55 -32 -75 -90 -55 -157 4 -16 14 -55 21
-85 7 -30 22 -77 32 -103 l19 -49 -40 -31 c-81 -64 -143 -134 -155 -173 -24
-79 29 -142 123 -148 50 -4 113 17 144 46 55 52 79 169 53 258 -10 33 -9 37
21 60 17 14 56 44 86 68 l54 43 -7 -58 c-3 -32 -8 -67 -10 -78 -2 -11 -7 -59
-10 -106 -8 -98 7 -143 55 -172 40 -23 63 -21 94 7 45 42 183 262 303 486 17
31 18 46 1 53 -7 3 -34 -29 -67 -82 -116 -186 -201 -310 -251 -370 -28 -32
-36 63 -14 169 3 14 8 39 11 55 3 17 12 59 20 95 9 36 17 73 19 82 9 41 48
177 64 223 10 28 21 67 25 87 7 40 9 41 91 53 22 3 51 7 65 9 14 3 28 5 32 5
13 2 38 33 33 41 -3 4 -22 4 -42 0 -50 -11 -143 -20 -143 -14 0 20 78 187 115
249 29 47 31 70 9 79 -19 7 -63 7 -84 -1z m-180 -709 c-17 -60 -27 -91 -24
-69 6 47 46 187 51 182 1 -2 -10 -53 -27 -113z m-38 -156 c-6 -6 -7 0 -4 19 5
21 7 23 10 9 2 -10 0 -22 -6 -28z m-362 -189 c0 -89 -58 -159 -133 -159 -29 0
-29 1 -24 38 5 29 20 50 73 100 36 34 70 62 75 62 5 0 9 -18 9 -41z m45 -159
c-16 -16 -32 -30 -37 -30 -8 0 53 59 61 60 3 0 -8 -13 -24 -30z"/>
<path d="M1698 2927 c-37 -56 -103 -174 -147 -262 -79 -158 -231 -528 -231
-562 0 -15 -2 -16 -10 -3 -10 14 -9 93 6 355 7 126 11 155 31 234 l17 64 -28
23 c-15 13 -33 24 -41 24 -15 0 -126 -164 -171 -251 -14 -29 -48 -87 -73 -128
-26 -42 -67 -114 -90 -161 -24 -47 -46 -87 -48 -90 -3 -3 -3 20 1 50 3 30 8
80 11 110 3 30 7 75 9 100 19 195 25 388 14 428 -21 77 -91 104 -131 50 -21
-28 -33 -107 -16 -109 5 -1 15 -2 22 -3 8 -1 12 -18 11 -51 -2 -97 -15 -309
-20 -316 -2 -4 0 -10 6 -14 5 -3 10 -12 10 -18 0 -7 -4 -6 -11 3 -8 12 -10 8
-7 -17 3 -18 1 -30 -3 -27 -10 6 -21 -74 -15 -103 3 -13 0 -23 -5 -23 -6 0 -7
-5 -4 -11 4 -5 0 -40 -8 -77 -46 -203 -46 -236 1 -247 30 -6 76 6 87 24 3 6 8
20 10 32 4 21 84 198 115 254 9 17 45 84 80 150 51 97 119 214 136 234 10 12
12 -9 3 -44 -30 -130 -42 -470 -19 -556 15 -53 46 -81 88 -77 34 3 34 4 72
113 20 61 47 135 60 165 12 30 29 75 37 100 8 25 35 88 60 140 25 52 51 112
58 132 14 37 79 152 148 260 21 31 37 61 37 65 0 4 18 24 40 44 43 40 49 59
24 83 -30 30 -48 17 -116 -87z"/>
<path d="M3388 2939 c-7 -4 -13 -29 -14 -56 -1 -59 -9 -88 -30 -120 -13 -20
-14 -31 -5 -49 6 -13 14 -24 19 -24 17 0 83 77 77 91 -3 8 8 35 24 59 28 41
29 46 15 72 -8 15 -18 28 -22 29 -4 0 -17 2 -29 3 -12 1 -28 -1 -35 -5z m35
-174 c-3 -9 -8 -14 -10 -11 -3 3 -2 9 2 15 9 16 15 13 8 -4z"/>
<path d="M1720 2780 c-8 -5 -14 -31 -15 -63 -1 -33 -11 -74 -24 -100 -18 -37
-20 -50 -11 -66 6 -12 14 -21 19 -21 12 0 52 46 46 53 -3 4 -2 5 2 2 8 -6 33
14 33 27 0 6 -7 5 -16 -3 -17 -14 16 48 48 90 16 21 16 26 2 52 -8 16 -20 29
-27 30 -6 0 -19 2 -28 4 -9 1 -22 -1 -29 -5z"/>
<path d="M1643 2465 c-24 -17 -42 -81 -49 -175 -5 -60 -3 -68 23 -102 54 -72
124 -84 167 -31 45 56 134 224 129 243 -8 31 -35 9 -68 -57 -32 -64 -119 -156
-144 -151 -9 2 -16 14 -17 29 -1 34 28 146 49 186 23 44 22 49 -14 62 -42 14
-50 14 -76 -4z"/>
</g>
</svg>
